<svg width="60" height="60" viewBox="0 0 60 60" fill="none" xmlns="http://www.w3.org/2000/svg" class="absolute -top-8 left-[calc(50%_-_30px)]"><path d="M26.9745 2.82258C28.6783 1.23303 31.3217 1.23303 33.0255 2.82258C34.2557 3.97027 36.0294 4.32308 37.6052 3.73353C39.7876 2.917 42.2297 3.92856 43.1955 6.04914C43.8929 7.58026 45.3966 8.58496 47.078 8.64331C49.4068 8.72411 51.2759 10.5932 51.3567 12.922C51.415 14.6034 52.4197 16.1071 53.9509 16.8045C56.0714 17.7703 57.083 20.2124 56.2665 22.3948C55.6769 23.9706 56.0297 25.7443 57.1774 26.9745C58.767 28.6783 58.767 31.3217 57.1774 33.0255C56.0297 34.2557 55.6769 36.0294 56.2665 37.6052C57.083 39.7876 56.0714 42.2297 53.9509 43.1955C52.4197 43.8929 51.415 45.3966 51.3567 47.078C51.2759 49.4068 49.4068 51.2759 47.078 51.3567C45.3966 51.415 43.8929 52.4197 43.1955 53.9509C42.2297 56.0714 39.7876 57.083 37.6052 56.2665C36.0294 55.6769 34.2557 56.0297 33.0255 57.1774C31.3217 58.767 28.6783 58.767 26.9745 57.1774C25.7443 56.0297 23.9706 55.6769 22.3948 56.2665C20.2124 57.083 17.7703 56.0714 16.8045 53.9509C16.1071 52.4197 14.6034 51.415 12.922 51.3567C10.5932 51.2759 8.72411 49.4068 8.64331 47.078C8.58496 45.3966 7.58026 43.8929 6.04914 43.1955C3.92856 42.2297 2.917 39.7876 3.73353 37.6052C4.32308 36.0294 3.97027 34.2557 2.82258 33.0255C1.23303 31.3217 1.23303 28.6783 2.82258 26.9745C3.97027 25.7443 4.32308 23.9706 3.73353 22.3948C2.917 20.2124 3.92856 17.7703 6.04914 16.8045C7.58026 16.1071 8.58496 14.6034 8.64331 12.922C8.72411 10.5932 10.5932 8.72411 12.922 8.64331C14.6034 8.58496 16.1071 7.58026 16.8045 6.04914C17.7703 3.92856 20.2124 2.917 22.3948 3.73353C23.9706 4.32308 25.7443 3.97027 26.9745 2.82258Z" fill="#381FD1"></path><path fill-rule="evenodd" clip-rule="evenodd" d="M29.1206 44.6393V40.2284C32.1395 40.491 35.1198 39.4039 37.2603 37.2591C40.6702 33.8489 41.2479 28.5258 38.6489 24.4636L24.4636 38.6476L21.3012 41.8097C20.7089 41.3721 20.1502 40.8909 19.6297 40.3701C13.9021 34.643 13.9021 25.3573 19.6297 19.6298C22.594 16.6591 26.6915 15.1043 30.8806 15.3607V19.7716C27.8617 19.5089 24.8814 20.5961 22.7409 22.7409C19.331 26.151 18.7533 31.4742 21.3523 35.5364L35.5375 21.3526L38.7001 18.1905C39.2924 18.6281 39.8511 19.1093 40.3717 19.6301C46.0992 25.3572 46.0992 34.6429 40.3717 40.3704C37.4072 43.341 33.3097 44.8957 29.1206 44.6393Z" fill="white"></path></svg>