<svg xmlns="http://www.w3.org/2000/svg" width="148" height="37" fill="none"><g clip-path="url(#a)"><path fill="#211E1E" d="M13.737.77v.483h-.317c-.47 0-1.26 0-1.26 1.47v6.028c0 3.691-1.603 5.484-4.906 5.484-3.73 0-5.467-1.49-5.467-4.68V2.724c0-1.47-.796-1.47-1.498-1.47h-.15V.77h5.578v.483h-.15c-.69 0-1.553 0-1.553 1.47V9.25c0 2.812 1.173 4.18 3.59 4.18 2.353 0 3.592-1.474 3.592-4.259V2.723c0-1.47-.812-1.47-1.404-1.47h-.298V.77h4.243Zm6.025 12.696v.482h-4.707v-.482h.189c1.54 0 1.74-1.177 1.74-2.502V3.049c0-1.267-.729-1.796-1.76-1.796h-.169V.774h3.703l8.009 9.813V3.123c0-1.686-1.181-1.87-1.687-1.87h-.333V.774H29.5v.478h-.203c-.836 0-1.722.197-1.722 2.503V14.01l-.703.003-9.083-10.99.004 7.93c0 1.326.192 2.511 1.785 2.511h.184Zm25.235-2.314 2.898-8.095c.518-1.38.184-1.805-1.012-1.805h-.243V.77h3.75v.483h-.083c-.408 0-.886.121-1.243 1.027l-4.389 11.716h-.835L39.07 2.39c-.376-.965-.823-1.137-1.624-1.137h-.11V.77h5.445v.483h-.353c-.93 0-1.11.584-.847 1.294l3.416 8.605Zm21.987-9.758-.004 5.832h1.13c2.05 0 2.957-.914 2.957-3.056 0-1.737-1.122-2.863-2.808-2.863-.397 0-.934.031-1.275.087ZM69.008.77c2.918 0 4.365 1.075 4.365 3.287 0 1.875-1.463 2.824-2.616 3.29l-.086.032 3.231 4.922c.519.796.938 1.106 1.832 1.153v.494h-3.377L68.44 7.763H66.98v4.099c0 1.486.663 1.604 1.596 1.604h.26v.482h-5.727v-.482h.259c.643 0 1.388-.29 1.388-1.106V2.782c0-1.53-.902-1.53-1.388-1.53h-.26V.77h5.9Z"></path><mask id="b" width="10" height="15" x="76" y="0" maskUnits="userSpaceOnUse" style="mask-type: luminance;"><path fill="#fff" d="M76.523.088h9.037V14.78h-9.037V.088Z"></path></mask><g mask="url(#b)"><path fill="#211E1E" d="M82.697 11.446c0-1.604-1.377-2.235-2.66-2.906-1.506-.78-3.235-1.592-3.235-4.024 0-2.353 1.792-3.875 4.353-3.875 1.048 0 2.232.212 2.754.314l.18 2.565-.494.07c-.228-1.349-.93-2.384-2.444-2.384-1.427 0-2.482.874-2.482 2.451 0 1.486 1.373 2.094 2.651 2.742 1.565.784 3.357 1.6 3.357 4.055 0 2.718-2.42 3.934-4.659 3.934-.89 0-2.126-.18-3.122-.741l-.314-2.856.479-.082c.364 1.894 1.568 2.989 3.153 2.989 1.518 0 2.483-.926 2.483-2.252Z"></path></g><path fill="#211E1E" d="M92.093.77v.483h-.184c-.753 0-1.443.14-1.443 1.164v9.884c0 1.024.69 1.165 1.443 1.165h.184v.482h-5.502v-.482h.188c.749 0 1.443-.141 1.443-1.165V2.417c0-1.023-.694-1.164-1.443-1.164h-.188V.77h5.502Zm-55.521 0v.483h-.188c-.75 0-1.444.14-1.444 1.164v9.884c0 1.024.695 1.165 1.443 1.165h.189v.482h-5.503v-.482h.184c.754 0 1.448-.141 1.448-1.165V2.417c0-1.023-.694-1.164-1.448-1.164h-.184V.77h5.503Z"></path><mask id="c" width="15" height="19" x="133" y="18" maskUnits="userSpaceOnUse" style="mask-type: luminance;"><path fill="#fff" d="M133.755 18.796h13.951V36.87h-13.951V18.796Z"></path></mask><g mask="url(#c)"><path fill="#211E1E" d="m146.235 19.796.047 3.5s-.427.105-.561.144c-.125-1.53-.47-2.777-2.914-2.777h-3.286v6.464h2.82c1.384 0 1.761-.773 1.918-2.11h.56v5.405l-.56.007c-.087-1.29-.393-2.294-1.907-2.294h-2.831v5.675c0 1.651 1.419 1.651 2.925 1.651 2.699 0 3.954-.172 4.707-2.902.11.028.553.122.553.122l-.757 3.643h-12.264v-.604h.235c.937 0 1.808-.176 1.808-1.459V21.863c0-1.282-.871-1.462-1.808-1.462h-.235v-.604h11.55Z"></path></g><path fill="#211E1E" d="m76.848 20.577-.004 7.314h1.412c2.573 0 3.706-1.145 3.706-3.831 0-2.181-1.404-3.59-3.518-3.59-.494 0-1.13.03-1.596.107Zm2.537-.78c3.66 0 5.472 1.348 5.472 4.117 0 2.354-1.832 3.542-3.279 4.13l-.106.044 4.052 6.17c.65 1 1.18 1.387 2.294 1.45v.616H83.59l-4.918-7.762h-1.828v5.146c0 1.867.828 2.012 1.996 2.012h.33v.604h-7.186v-.604h.33c.8 0 1.741-.365 1.741-1.388V22.318c0-1.914-1.133-1.914-1.741-1.914h-.33v-.608h7.401Zm16.344-.005v.608h-.235c-.942 0-1.813.177-1.813 1.46v12.397c0 1.282.871 1.459 1.813 1.459h.235v.604h-6.903v-.604h.231c.942 0 1.812-.177 1.812-1.459V21.86c0-1.282-.87-1.459-1.812-1.459h-.231v-.608h6.903Z"></path><mask id="d" width="14" height="15" x="92" y="0" maskUnits="userSpaceOnUse" style="mask-type: luminance;"><path fill="#fff" d="M92.588.088h13.053V14.78H92.588V.088Z"></path></mask><g mask="url(#d)"><path fill="#211E1E" d="M94.957.77h8.715c.44 0 1.004-.11 1.091-.682h.423l-.333 3.436h-.471c-.027-.793-.145-1.95-1.416-1.95h-2.659v10.174c0 1.585.761 1.718 1.612 1.718h.279v.483h-6.005v-.483h.278c1 0 1.612-.082 1.612-1.678V1.573h-2.69c-1.37 0-1.502.604-1.765 1.934h-.475l.302-3.393h.389c.176.55.65.66 1.113.655Z"></path></g><path fill="#211E1E" d="M118.662.77v.49c-.758.043-1.216.56-1.558 1.044l-3.345 5.157v4.208c0 1.675.608 1.797 1.612 1.797h.278v.482h-6.004v-.482h.278c1.043 0 1.612-.263 1.612-1.643V7.775l-3.632-5.193c-.553-.8-.972-1.33-1.851-1.33h-.114V.77h5.444v.483h-.169c-1.043 0-1.118.557-.674 1.188l2.816 4.361 2.487-3.938c.572-.858.737-1.611-.675-1.611h-.216V.77h3.711Z"></path><mask id="e" width="16" height="15" x="121" y="0" maskUnits="userSpaceOnUse" style="mask-type: luminance;"><path fill="#fff" d="M121.706.088h15.061V14.78h-15.061V.088Z"></path></mask><g mask="url(#e)"><path fill="#211E1E" d="M125.107 6.787c0 3.255 1.435 6.758 4.593 6.758 2.886 0 4.294-2.005 4.294-6.127 0-3.028-1.616-6.244-4.612-6.244-3.969 0-4.275 4.295-4.275 5.613Zm-2.448.667c0-3.907 2.969-6.966 6.762-6.966 4.134 0 7.017 2.675 7.017 6.507 0 4.192-2.911 7.24-6.927 7.24-3.969 0-6.852-2.851-6.852-6.781Z"></path></g><mask id="f" width="11" height="15" x="137" y="0" maskUnits="userSpaceOnUse" style="mask-type: luminance;"><path fill="#fff" d="M137.771.723h9.935V14.78h-9.935V.723Z"></path></mask><g mask="url(#f)"><path fill="#211E1E" d="M137.94 13.945v-.479h.188c.753 0 1.444-.141 1.444-1.165V2.418c0-1.024-.691-1.165-1.444-1.165h-.188V.774h9.209l.031 2.785c-.074.023-.337.086-.439.114-.106-1.13-.365-2.212-1.937-2.212h-3.009v5.153h2.64c1.09 0 1.247-.859 1.255-1.545h.435v4.22h-.431c-.012-.824-.204-1.87-1.557-1.87h-2.342V12.3c0 1.165.985 1.165 1.855 1.165h.165v.479h-5.875Z"></path></g><path fill="#211E1E" d="M1.187 28.048c0-2.459.996-4.871 2.71-6.408 1.592-1.428 3.683-2.228 6.044-2.228 2.11 0 3.875.38 5.597 1.184l.172 3.828-.541.07c-.624-2.22-1.66-4.25-5.161-4.25-3.597 0-5.833 2.85-5.833 7.432 0 4.083 1.808 7.942 6.186 7.942 2.458 0 4.212-.922 5.537-2.624l.432.812c-1.49 1.93-3.797 2.953-6.417 2.953-5.33 0-8.726-3.145-8.726-8.71Zm35.632-5.055-.545 10.205c-.102 2.263.6 2.46 2.118 2.518h.141v.6h-5.57v-.6h.212c1.875-.075 1.993-1.118 2.079-2.644l.647-10.448c.086-1.428-.694-2.236-2.012-2.236h-.188v-.6h4.68c.054.13 5.612 12.524 5.612 12.524s5.251-12.394 5.31-12.527h4.585v.608h-.09c-1.86 0-2.189.58-2.047 2.914l.639 10.962c.098 1.282.768 1.4 2.035 1.447v.596h-6.86v-.6h.048c1.117-.066 1.922-.114 1.922-1.235l-.02-1.184-.506-10.57s-5.656 13.582-5.715 13.715h-.498c-.055-.137-5.977-13.445-5.977-13.445Zm66.366-2.413-.004 12.979c0 1.753.741 2.035 2.514 2.035 4.177 0 6.075-3.596 6.075-7.118 0-5.48-2.259-7.97-6.907-7.97-.411 0-1.286.035-1.678.074Zm-4.856 15.74v-.604h.236c.94 0 1.812-.177 1.812-1.459V21.859c0-1.282-.871-1.459-1.812-1.459h-.236v-.608l7.389-.003c2.746 0 5.048.69 6.656 2.185 1.581 1.475 2.42 3.561 2.42 6.04 0 2.318-.925 4.558-2.529 6.154-1.617 1.604-3.883 2.15-6.174 2.15l-7.762.002Zm30.53-.851v-4.052c0-.882-.647-1.353-1.867-1.353h-.192v-.588h6.354v.588h-.193c-.89 0-1.361.47-1.361 1.353l-.004 4.51c-1.513.491-3.549.875-5.808.875-5.456 0-8.982-3.537-8.982-9.009 0-5.816 4.652-8.471 9.029-8.471 1.957 0 3.973.392 5.248.82l.262 3.945-.553.031c-.686-2.84-1.949-3.953-4.796-3.953-3.84 0-6.166 2.832-6.166 7.385 0 4.185 1.965 8.335 6.35 8.335 1.012.022 2.059-.134 2.679-.416Zm-63.844-8.146c2.083.152 3.189.612 4.118 1.564.722.738 1.102 1.671 1.102 2.758 0 2.592-2.38 4.67-5.471 4.67h-8.095v-.599h.325c.804 0 1.742-.384 1.742-1.408v-11.99c0-1.914-1.134-1.914-1.742-1.914h-.325V19.8l7.338-.003c3.444 0 5.338 1.247 5.338 3.613 0 2.62-2.302 3.587-4.33 3.913Zm-3.385-6.918v6.636h1.24c2.278 0 3.533-1.106 3.533-3.216 0-2.334-1.102-3.42-3.278-3.42H61.63Zm0 7.358v5.816c0 1.616.514 2.075 2.189 2.075 2.012 0 3.534-1.655 3.534-3.91 0-2.542-1.55-3.981-4.138-3.981H61.63Zm-38.26-4.598 2.31 6.436h-4.624l2.314-6.436Zm.287-3.373-5.244 14.265c-.389 1.016-1.075 1.64-2.095 1.64h-.055v.619h5.028v-.62h-.22c-1.211 0-2.035-.388-1.51-1.949l1.205-3.334h5.205l1.302 3.636c.376 1.145-.114 1.663-1.357 1.663h-.146v.612h6.401v-.612h-.05c-.852 0-1.436-.447-1.836-1.58l-5.381-14.336-1.247-.004ZM60.485.77l.035 2.789s-.337.082-.443.114c-.102-1.22-.377-2.212-2.326-2.212h-2.616v5.15h2.248c1.102 0 1.4-.616 1.525-1.68h.447v4.303l-.447.009c-.066-1.028-.31-1.828-1.517-1.828h-2.256v4.522c0 1.314 1.134 1.314 2.33 1.314 2.153 0 3.15-.133 3.753-2.314.086.023.44.098.44.098l-.604 2.906H51.28v-.482h.184c.75 0 1.443-.141 1.443-1.165v-9.88c0-1.02-.694-1.16-1.443-1.16h-.184V.77h9.205Z"></path></g><defs><clipPath id="a"><path fill="#fff" d="M0 0h147.798v37H0z"></path></clipPath></defs></svg>